<svg xmlns="http://www.w3.org/2000/svg" viewBox="0 0 77.63 77.63"><defs><style>.cls-1{fill:#fdfefe;opacity:0.1;}.cls-2{fill:#b2f8f0;}.cls-3{fill:#081e57;}.cls-4{fill:#fdfdfe;}circle{opacity:1!important;}</style></defs><g id="Layer_2" data-name="Layer 2"><g id="Layer_1-2" data-name="Layer 1"><circle class="cls-1" cx="38.82" cy="38.82" r="38.82"/><path class="cls-2" d="M58.09,36.53,60.41,33,58.78,31.4l-3.49,2.33A11.46,11.46,0,0,0,51.16,32l-.83-4.17H48L47.2,32a11.18,11.18,0,0,0-4.13,1.72L39.58,31.4,37.94,33l2.33,3.49a11.46,11.46,0,0,0-1.72,4.13l-4.17.82v2.31l4.17.82a11.53,11.53,0,0,0,1.72,4.13l-2.33,3.49,1.64,1.64,3.49-2.32a11.45,11.45,0,0,0,4.13,1.71L48,57.43h2.31l.83-4.17a11.53,11.53,0,0,0,4.13-1.71l3.49,2.32,1.63-1.64-2.32-3.49a11.37,11.37,0,0,0,1.71-4.13L64,43.79V41.48l-4.17-.82A11.39,11.39,0,0,0,58.09,36.53Zm-8.91,13a6.88,6.88,0,1,1,6.87-6.87A6.88,6.88,0,0,1,49.18,49.51Z"/><path class="cls-3" d="M60.41,36.59l2.53-3.8L59,28.87l-3.81,2.54a12.63,12.63,0,0,0-2.37-1L52,25.88H46.41l-.9,4.54a13,13,0,0,0-2.38,1l-3.8-2.54-3.92,3.92L38,36.59A13,13,0,0,0,37,39l-4.54.89v5.55L37,46.3a12.72,12.72,0,0,0,1,2.38l-2.54,3.8,3.92,3.92,3.8-2.54a13,13,0,0,0,2.38,1l.9,4.55H52l.9-4.55a12.91,12.91,0,0,0,2.37-1L59,56.4l3.91-3.92-2.53-3.8a12,12,0,0,0,1-2.38l4.55-.89V39.86L61.39,39A12,12,0,0,0,60.41,36.59ZM64,43.79l-4.17.82a11.37,11.37,0,0,1-1.71,4.13l2.32,3.49-1.63,1.64-3.49-2.32a11.53,11.53,0,0,1-4.13,1.71l-.83,4.17H48l-.82-4.17a11.45,11.45,0,0,1-4.13-1.71l-3.49,2.32-1.64-1.64,2.33-3.49a11.53,11.53,0,0,1-1.72-4.13l-4.17-.82V41.48l4.17-.82a11.46,11.46,0,0,1,1.72-4.13L37.94,33l1.64-1.64,3.49,2.33A11.18,11.18,0,0,1,47.2,32L48,27.84h2.31L51.16,32a11.46,11.46,0,0,1,4.13,1.72l3.49-2.33L60.41,33l-2.32,3.49a11.39,11.39,0,0,1,1.71,4.13l4.17.82Z"/><path class="cls-3" d="M49.18,35.76a6.88,6.88,0,1,0,6.87,6.88A6.89,6.89,0,0,0,49.18,35.76Zm0,11.79a4.91,4.91,0,1,1,4.91-4.91A4.92,4.92,0,0,1,49.18,47.55Z"/><path class="cls-2" d="M33.3,24.75l1.48-2.23-1.05-1L31.51,23a7.34,7.34,0,0,0-2.64-1.09l-.53-2.67H26.87l-.53,2.67A7.09,7.09,0,0,0,23.71,23l-2.23-1.48-1.05,1,1.49,2.23a7.2,7.2,0,0,0-1.1,2.64l-2.66.52v1.48l2.66.53a7.29,7.29,0,0,0,1.1,2.63l-1.49,2.23,1.05,1,2.23-1.49a7.3,7.3,0,0,0,2.63,1.1l.53,2.66h1.47l.53-2.66a7.26,7.26,0,0,0,2.64-1.1l2.22,1.49,1.05-1L33.3,32.55a7.29,7.29,0,0,0,1.09-2.63l2.67-.53V27.91l-2.67-.52A7.34,7.34,0,0,0,33.3,24.75ZM27.61,33A4.39,4.39,0,1,1,32,28.65,4.4,4.4,0,0,1,27.61,33Z"/><path class="cls-4" d="M28.89,44.2l.9-1.34-.63-.63-1.34.89a4.4,4.4,0,0,0-1.59-.65l-.31-1.6H25l-.31,1.6a4.35,4.35,0,0,0-1.59.65l-1.34-.89-.63.63.9,1.34a4.31,4.31,0,0,0-.66,1.58l-1.6.32V47l1.6.31a4.22,4.22,0,0,0,.66,1.59l-.9,1.34.63.62L23.13,50a4.4,4.4,0,0,0,1.59.66l.31,1.6h.89l.31-1.6A4.49,4.49,0,0,0,27.82,50l1.34.89.63-.62-.9-1.34a4.24,4.24,0,0,0,.66-1.59l1.6-.31V46.1l-1.6-.32A4.45,4.45,0,0,0,28.89,44.2Zm-3.42,5a2.64,2.64,0,1,1,2.64-2.64A2.64,2.64,0,0,1,25.47,49.18Z"/></g></g></svg>