<?xml version="1.0" encoding="utf-8"?>
<!-- Generator: Adobe Illustrator 24.2.1, SVG Export Plug-In . SVG Version: 6.00 Build 0)  -->
<svg version="1.1" id="Layer_1" xmlns="http://www.w3.org/2000/svg" xmlns:xlink="http://www.w3.org/1999/xlink" x="0px" y="0px"
	 viewBox="0 0 173.7 173.3" style="enable-background:new 0 0 173.7 173.3;" xml:space="preserve">
<style type="text/css">
	.st0{fill:url(#SVGID_1_);}
	.st1{fill:#FFFFFF;}
</style>
<linearGradient id="SVGID_1_" gradientUnits="userSpaceOnUse" x1="8.236335e-04" y1="86.64" x2="173.6892" y2="86.64">
	<stop  offset="0.2242" style="stop-color:#00D7E2"/>
	<stop  offset="0.8061" style="stop-color:#00BDFF"/>
</linearGradient>
<path class="st0" d="M84.8,0L0,0.2L0.4,89c2.4,50.4,40.5,84.3,87.3,84.3c48.3,0,86-38.4,86-86.7C173.7,39.8,139.9,2.4,84.8,0z"/>
<polygon class="st1" points="42.4,114 36.5,114 36.5,104.1 31.1,104.1 31.1,128.7 36.5,128.7 36.5,118.7 42.4,118.7 42.4,128.7 
	47.8,128.7 47.8,104.1 42.4,104.1 "/>
<polygon class="st1" points="67.8,124.3 58.2,124.3 58.2,118.3 65.7,118.3 65.7,114 58.2,114 58.2,108.3 67.8,108.3 67.8,104.1 
	52.8,104.1 52.8,128.7 67.8,128.7 67.8,128.6 "/>
<path class="st1" d="M75.2,104.1l-7.4,24.5v0.1h4.9l1.2-5.1h6.9l1.2,5.1h5.5l-7-24.6H75.2z M75,119.4l2.4-10.1l2.5,10.1H75z"/>
<polygon class="st1" points="67.8,128.7 67.8,128.7 67.8,128.6 "/>
<polygon class="st1" points="95.5,104.1 90.1,104.1 90.1,128.7 103.4,128.7 103.4,124.1 95.5,124.1 "/>
<polygon class="st1" points="102.6,108.7 107.5,108.7 107.5,128.7 112.9,128.7 112.9,108.7 118,108.7 118,104.1 102.6,104.1 "/>
<polygon class="st1" points="131.5,114 125.6,114 125.6,104.1 120.2,104.1 120.2,128.7 125.6,128.7 125.6,118.7 131.5,118.7 
	131.5,128.7 136.9,128.7 136.9,104.1 131.5,104.1 "/>
<path class="st1" d="M60.6,75.9h-5.2v4.2c0,2-0.1,3.7-0.4,5.3c-0.3,1.5-0.8,2.9-1.5,4.2c-0.7,1.2-1.7,2.2-2.9,2.9
	c-1.2,0.7-2.7,1-4.5,1c-1.9,0-3.6-0.3-4.9-1c-1.3-0.7-2.4-1.6-3.1-2.9c-0.7-1.3-1.2-2.6-1.5-4.1c-0.3-1.5-0.4-3.3-0.4-5.3V51.8
	c0-1.6,0.1-3,0.3-4.3c0.2-1.3,0.5-2.5,0.9-3.6c0.4-1.1,1-2.1,1.8-2.9c0.7-0.8,1.7-1.4,2.9-1.8c1.2-0.4,2.5-0.7,4.1-0.7
	c1.7,0,3.2,0.3,4.5,1c1.2,0.7,2.2,1.6,2.9,2.8c0.7,1.2,1.2,2.6,1.5,4.1c0.3,1.5,0.4,3.3,0.4,5.3v3.7h5.2v-2.5
	c0-12.6-4.8-18.9-14.5-18.9c-2.3,0-4.4,0.3-6.2,1c-1.8,0.6-3.2,1.5-4.4,2.6c-1.1,1.1-2.1,2.5-2.8,4.1c-0.7,1.6-1.2,3.3-1.5,5.1
	c-0.3,1.8-0.4,3.8-0.4,6v25.9c0,2.2,0.1,4.2,0.4,6c0.3,1.8,0.8,3.5,1.5,5.1c0.7,1.6,1.6,3,2.8,4.1c1.1,1.1,2.6,2,4.4,2.7
	c1.8,0.7,3.9,1,6.3,1c2.2,0,4.2-0.3,5.9-1c1.7-0.7,3.1-1.5,4.2-2.7c1.1-1.1,2-2.5,2.6-4.1c0.7-1.6,1.2-3.4,1.4-5.2
	c0.3-1.8,0.4-3.8,0.4-6V75.9z"/>
<polygon class="st1" points="90,92.5 72.7,92.5 72.7,35.1 67.3,35.1 67.3,96.9 90,96.9 "/>
<rect x="94.4" y="35.1" class="st1" width="5.5" height="61.8"/>
<path class="st1" d="M116.3,96.8c1.8,0.7,3.9,1,6.3,1c2.2,0,4.2-0.3,5.9-1c1.7-0.7,3.1-1.5,4.2-2.7c1.1-1.1,2-2.5,2.6-4.1
	c0.7-1.6,1.2-3.4,1.4-5.2c0.3-1.8,0.4-3.8,0.4-6v-3h-5.2v4.2c0,2-0.1,3.7-0.4,5.3c-0.3,1.5-0.8,2.9-1.5,4.2
	c-0.7,1.2-1.7,2.2-2.9,2.9c-1.2,0.7-2.7,1-4.5,1c-1.9,0-3.6-0.3-4.9-1c-1.3-0.7-2.4-1.6-3.1-2.9c-0.7-1.3-1.2-2.6-1.5-4.1
	c-0.3-1.5-0.4-3.3-0.4-5.3V51.8c0-1.6,0.1-3,0.3-4.3c0.2-1.3,0.5-2.5,0.9-3.6c0.4-1.1,1-2.1,1.8-2.9c0.7-0.8,1.7-1.4,2.9-1.8
	c1.2-0.4,2.5-0.7,4.1-0.7c1.7,0,3.2,0.3,4.5,1c1.2,0.7,2.2,1.6,2.9,2.8c0.7,1.2,1.2,2.6,1.5,4.1c0.3,1.5,0.4,3.3,0.4,5.3v3.7h5.2
	v-2.5c0-12.6-4.8-18.9-14.5-18.9c-2.3,0-4.4,0.3-6.2,1c-1.8,0.6-3.2,1.5-4.4,2.6c-1.1,1.1-2.1,2.5-2.8,4.1c-0.7,1.6-1.2,3.3-1.5,5.1
	c-0.3,1.8-0.4,3.8-0.4,6v25.9c0,2.2,0.1,4.2,0.4,6c0.3,1.8,0.8,3.5,1.5,5.1c0.7,1.6,1.6,3,2.8,4.1C113,95.3,114.5,96.2,116.3,96.8z"
	/>
</svg>
