<?xml version="1.0" encoding="utf-8"?>
<!-- Generator: Adobe Illustrator 24.2.1, SVG Export Plug-In . SVG Version: 6.00 Build 0)  -->
<svg version="1.1" id="Layer_1" xmlns="http://www.w3.org/2000/svg" xmlns:xlink="http://www.w3.org/1999/xlink" x="0px" y="0px"
	 viewBox="0 0 77.6 77.6" style="enable-background:new 0 0 77.6 77.6;" xml:space="preserve">
<style type="text/css">
	.st0{opacity:0.1;fill:#FEFFFF;enable-background:new    ;}
	.st1{fill:#FEFFFF;}
	.st2{fill:#B9E0E2;}
	.st3{fill:#202950;}
</style>
<circle class="st0" cx="38.8" cy="39" r="38.8"/>
<g>
	<rect x="22.1" y="43.6" class="st1" width="8.2" height="15"/>
	<path class="st1" d="M51.7,31.6c1.9,0,3.5-1.6,3.5-3.5s-1.6-3.5-3.5-3.5s-3.5,1.6-3.5,3.5C48.2,30.1,49.7,31.6,51.7,31.6z"/>
	<path class="st2" d="M32.8,35.1c0-1-0.8-1.8-1.8-1.8H20.9c-1,0-1.8,0.8-1.8,1.8v9.7c0,0.5,0.4,1,1,1h0.8v-7.9
		c0-0.5,0.4-0.8,0.8-0.8c0.5,0,0.8,0.4,0.8,0.8v4.6h7v-4.6c0-0.5,0.4-0.8,0.8-0.8c0.5,0,0.8,0.4,0.8,0.8v7.9h0.8c0.5,0,1-0.4,1-1
		l0,0L32.8,35.1L32.8,35.1z"/>
	<polygon class="st1" points="50.4,58.1 52.9,58.1 54,50.8 49.3,50.8 	"/>
	<path class="st1" d="M56,47.5c-0.5,0-0.8-0.4-0.8-0.8v-4.1h-7v4.1c0,0.5-0.4,0.8-0.8,0.8h-0.3l-0.3,1.7h9.9l-0.3-1.7H56z"/>
	<path class="st1" d="M25.9,31.6c1.9,0,3.5-1.6,3.5-3.5s-1.6-3.5-3.5-3.5s-3.5,1.6-3.5,3.5C22.4,30.1,24,31.6,25.9,31.6z"/>
	<path class="st2" d="M58.5,35.1c0-1-0.8-1.8-1.8-1.8H46.6c-1,0-1.8,0.8-1.8,1.8v9.7c0,0.5,0.4,1,1,1h0.8v-7.9
		c0-0.5,0.4-0.8,0.8-0.8c0.5,0,0.8,0.4,0.8,0.8v2.9h7v-2.9c0-0.5,0.4-0.8,0.8-0.8c0.5,0,0.8,0.4,0.8,0.8v7.9h0.8c0.5,0,1-0.4,1-1
		l0,0L58.5,35.1L58.5,35.1z"/>
	<path class="st3" d="M30,51.4c-0.3,0.1-0.6,0.4-0.6,0.7c0,0.3,0.2,0.7,0.5,0.8c0.3,0.2,0.7,0.1,1-0.2c0.3-0.3,0.3-0.7,0.1-1.1
		C30.8,51.5,30.4,51.4,30,51.4z"/>
	<path class="st3" d="M31,31.6h-1.2c0.8-0.9,1.4-2.1,1.4-3.5c0-2.8-2.3-5.2-5.2-5.2c-2.8,0-5.2,2.3-5.2,5.2c0,1.3,0.5,2.6,1.4,3.5
		H21c-1.9,0-3.5,1.6-3.5,3.5v9.7c0,1.5,1.2,2.6,2.6,2.6h0.8V59c0,0.5,0.4,0.8,0.8,0.8h8.6c0.5,0,0.8-0.4,0.8-0.8v-3
		c0-0.5-0.4-0.8-0.8-0.8c-0.5,0-0.8,0.4-0.8,0.8v2.1h-2.6v-10c0-0.5-0.4-0.8-0.8-0.8c-0.5,0-0.8,0.4-0.8,0.8v10h-2.7V44.2h7v4.2
		c0,0.5,0.4,0.8,0.8,0.8c0.5,0,0.8-0.4,0.8-0.8v-1H32c1.5,0,2.6-1.2,2.6-2.6v-9.7C34.5,33.2,32.9,31.6,31,31.6z M25.9,24.7
		c1.9,0,3.5,1.6,3.5,3.5s-1.6,3.5-3.5,3.5s-3.5-1.6-3.5-3.5C22.4,26.2,24,24.7,25.9,24.7z M31.8,45.8H31v-7.9c0-0.5-0.4-0.8-0.8-0.8
		c-0.5,0-0.8,0.4-0.8,0.8v4.6h-7v-4.6c0-0.5-0.4-0.8-0.8-0.8c-0.5,0-0.8,0.4-0.8,0.8v7.9H20c-0.5,0-1-0.4-1-1v-9.7
		c0-1,0.8-1.8,1.8-1.8h10.1c1,0,1.8,0.8,1.8,1.8v9.7l0,0C32.8,45.3,32.4,45.8,31.8,45.8z"/>
	<path class="st3" d="M56.7,31.6h-1.2c0.8-0.9,1.4-2.1,1.4-3.5c0-2.8-2.3-5.2-5.2-5.2s-5.2,2.3-5.2,5.2c0,1.3,0.5,2.6,1.4,3.5h-1.2
		c-1.9,0-3.5,1.6-3.5,3.5v9.7c0,1.3,1,2.4,2.2,2.6l-0.5,2.4c0,0.2,0,0.5,0.2,0.7s0.4,0.3,0.6,0.3h2l1.2,8.3c0.1,0.4,0.4,0.7,0.8,0.7
		h4c0.4,0,0.8-0.3,0.8-0.7l1.2-8.3h2c0.3,0,0.5-0.1,0.6-0.3c0.2-0.2,0.2-0.4,0.2-0.7L58,47.4c1.3-0.2,2.2-1.3,2.2-2.6v-9.7
		C60.2,33.2,58.6,31.6,56.7,31.6z M51.7,24.7c1.9,0,3.5,1.6,3.5,3.5s-1.6,3.5-3.5,3.5s-3.5-1.6-3.5-3.5
		C48.2,26.2,49.7,24.7,51.7,24.7z M52.9,58.1h-2.6l-1-7.3h4.6L52.9,58.1z M46.7,49.2l0.3-1.7h0.3c0.5,0,0.8-0.4,0.8-0.8v-4.1h7v4.1
		c0,0.5,0.4,0.8,0.8,0.8h0.3l0.3,1.7H46.7z M57.6,45.8h-0.8v-7.9c0-0.5-0.4-0.8-0.8-0.8c-0.5,0-0.8,0.4-0.8,0.8v2.9h-7v-2.9
		c0-0.5-0.4-0.8-0.8-0.8c-0.5,0-0.8,0.4-0.8,0.8v7.9h-0.8c-0.5,0-1-0.4-1-1v-9.7c0-1,0.8-1.8,1.8-1.8h10.1c1,0,1.8,0.8,1.8,1.8v9.7
		l0,0C58.5,45.3,58.1,45.8,57.6,45.8z"/>
	<path class="st3" d="M29.4,22.1c0.2,0.2,0.4,0.2,0.6,0.2s0.4-0.1,0.6-0.2c0.3-0.3,0.3-0.7,0.1-1h16.2c-0.2,0.3-0.2,0.7,0.1,1
		c0.2,0.2,0.4,0.2,0.6,0.2s0.4-0.1,0.6-0.2l1.3-1.3c0.3-0.3,0.3-0.9,0-1.2l-1.3-1.3c-0.3-0.3-0.9-0.3-1.2,0c-0.3,0.3-0.3,0.7-0.1,1
		H30.7c0.2-0.3,0.2-0.7-0.1-1c-0.3-0.3-0.9-0.3-1.2,0l-1.3,1.3c-0.3,0.3-0.3,0.9,0,1.2L29.4,22.1z"/>
	<path class="st3" d="M44.2,28l-0.8-4.1l0,0c-0.1-0.4-0.4-0.7-0.9-0.7c-0.4,0-0.8,0.2-0.9,0.6l0,0l-0.4,1.6l-0.5-1.6l0,0
		c-0.1-0.4-0.5-0.7-0.9-0.6c-0.4,0-0.8,0.3-0.9,0.8l0,0l-0.7,4.1c-0.1,0.5,0.2,0.9,0.7,1s0.9-0.2,1-0.7l0.2-1l0.3,1l0,0
		c0.1,0.4,0.5,0.6,0.9,0.6l0,0c0.4,0,0.8-0.3,0.9-0.6l0,0l0.3-1l0.2,1c0.1,0.5,0.5,0.8,1,0.7C44,28.9,44.3,28.4,44.2,28z"/>
	<path class="st3" d="M36.5,27.4L36.5,27.4c-0.2,0-0.4,0-0.6,0c0.2-0.2,0.4-0.5,0.6-0.8c0.3-0.4,0.5-0.8,0.6-1.2v-0.1v-0.2V25
		c0-1.1-0.9-1.9-1.9-1.9c-0.9,0-1.7,0.7-1.9,1.5c-0.1,0.5,0.2,0.9,0.7,1s0.9-0.2,1-0.7c0-0.1,0.1-0.2,0.2-0.2s0.2,0.1,0.2,0.2l0,0
		c0,0.1-0.1,0.3-0.3,0.6c-0.7,1-1.1,1.5-1.3,1.8c-0.3,0.4-0.5,0.7-0.4,1.1c0.1,0.3,0.3,0.5,0.6,0.6c0.1,0,0.2,0.1,1,0.1
		c0.3,0,0.8,0,1.4,0c0.5,0,0.8-0.4,0.8-0.8C37.4,27.8,37,27.4,36.5,27.4z"/>
</g>
</svg>
