<?xml version="1.0" encoding="utf-8"?>
<!-- Generator: Adobe Illustrator 24.2.1, SVG Export Plug-In . SVG Version: 6.00 Build 0)  -->
<svg version="1.1" id="Layer_1" xmlns="http://www.w3.org/2000/svg" xmlns:xlink="http://www.w3.org/1999/xlink" x="0px" y="0px"
	 viewBox="0 0 77.6 77.6" enable-background="new 0 0 77.6 77.6" xml:space="preserve">
<circle opacity="1" fill="#FDFFFF" cx="39" cy="39" r="38.6"/>
<path fill="#FFFFFF" d="M28.9,60.4c0.3-0.2,0.4-0.4,0.5-0.7c0.6,0,1.1,0,1.7,0c0,0.3,0.2,0.5,0.4,0.7C30.6,60.4,29.7,60.4,28.9,60.4
	z"/>
<path fill="#FFFFFF" d="M38.7,30.9c2.7,0,5.4,0,8,0c0.3,0,0.4,0.1,0.4,0.4c0,1.3,0,2.6-0.1,4c-0.2,3.3-2.8,6.3-5.9,7.3
	c-4.7,1.4-9.7-1.4-10.8-6.3c-0.2-0.9-0.2-1.9-0.2-2.8c0-0.7,0-1.4,0-2.1c0-0.4,0.1-0.4,0.4-0.4c0.5,0,0.9,0,1.4,0
	C34.3,30.9,36.5,30.9,38.7,30.9C38.7,30.9,38.7,30.9,38.7,30.9z"/>
<path fill="#F0F0F0" d="M31,59.7c-0.6,0-1.1,0-1.7,0c-0.1-0.5-0.4-0.7-0.9-0.6c-0.4,0-0.7,0-1.1,0c-0.1,0-0.3,0-0.3-0.2
	c0.1-1.8-0.2-3.7,0.1-5.5c0.3-1.9,1.4-3.2,3.1-4.2c0,0.5,0,1,0.2,1.5c0.4,1.3,1.1,2.5,2,3.5c1,1.1,2.1,2.1,3.3,2.9
	c0.5,0.3,0.9,0.2,1.1-0.4c0.3-0.8,0.6-1.6,1.2-2.3c0.4-0.5,0.6-0.5,1,0c0.5,0.6,0.9,1.4,1.1,2.1c0.3,0.8,0.7,0.9,1.3,0.4
	c1.4-1,2.7-2.1,3.7-3.5c1-1.3,1.7-2.6,1.6-4.3c0.4,0.1,0.6,0.3,0.9,0.5c1.5,1.2,2.3,2.7,2.4,4.6c0,1.5,0,2.9,0,4.4
	c0,0.3-0.1,0.4-0.4,0.4c-6,0-12,0-17.9,0C31.5,59.1,31.1,59.2,31,59.7z M46.3,56.6C46.3,56.6,46.3,56.6,46.3,56.6
	c-0.5,0-1.1,0-1.6,0c-0.4,0-0.7,0.2-0.7,0.6c0,0.4,0.2,0.7,0.6,0.7c1.1,0,2.2,0,3.3,0c0.4,0,0.7-0.3,0.6-0.7c0-0.4-0.2-0.6-0.7-0.6
	C47.3,56.6,46.8,56.6,46.3,56.6z"/>
<path fill="#B8DFE1" d="M47.1,25.9c-0.5-0.5-1-1.1-1.5-1.5c-0.1-0.1-0.2-0.2-0.3-0.2c-0.4-0.3-0.8-0.3-1,0c-0.3,0.3-0.2,0.7,0.2,1
	c0.6,0.5,1.2,1,1.7,1.7c0.5,0.7,0.8,1.4,1,2.3c0.1,0.3,0,0.4-0.4,0.4c-3,0-6,0-8.9,0c-0.3,0-0.4-0.1-0.4-0.4c0-0.9,0-1.7,0-2.6
	c0-0.3-0.1-0.6-0.4-0.7c-0.3-0.1-0.5-0.1-0.7,0.1c-0.2,0.2-0.2,0.4-0.2,0.6c0,0.9,0,1.7,0,2.6c0,0.3-0.1,0.4-0.4,0.4
	c0,0-0.1,0-0.1,0c-0.4,0-0.8,0.1-1,0c-0.3-0.2-0.1-0.7-0.1-1c0-0.4-0.3-0.7-0.7-0.7c-0.4,0-0.6,0.3-0.6,0.7c0,0.3,0.1,0.7-0.1,0.9
	c-0.2,0.2-0.7,0.1-1,0.1c-0.4,0-0.8,0-1.2,0c-0.4,0-0.4-0.1-0.4-0.5c0.3-1.3,1-2.4,2-3.3c2.1-1.9,4.6-2.5,7.4-2.3
	c0.8,0.1,1.6,0.3,2.3,0.5c0.4,0.1,0.8,0,0.9-0.4c0.1-0.4-0.1-0.7-0.5-0.9C41,22.2,39.5,22,38,22.1c-2.4,0.2-4.6,1-6.5,2.6
	c-0.4,0.4-0.8,0.8-1.2,1.2c0.3-1.1,0.8-2.1,1.6-2.9c2.3-2.4,5.1-3.2,8.3-2.6c1.3,0.2,2.6,0.7,3.8,1.4c1.4,0.9,2.4,2.1,3,3.7
	C47.1,25.6,47.1,25.7,47.1,25.9L47.1,25.9z"/>
<path fill="#FFFFFF" d="M41,45.5c0,0.4,0,0.7,0,1.1c0,0.9,0.6,1.6,1.5,1.9c0.6,0.1,0.6,0.3,0.3,0.8c-0.4,0.6-1,1-1.6,1.5
	c-0.7,0.6-1.5,1-2.2,1.5c-0.1,0.1-0.3,0.1-0.4,0c-1.2-0.7-2.4-1.5-3.4-2.5c-0.2-0.2-0.5-0.5-0.6-0.8c-0.1-0.3-0.1-0.4,0.3-0.5
	c1.3-0.4,1.7-0.9,1.7-2.2c0-0.7,0-1.3,0-2c0-0.2,0.1-0.3,0.3-0.3c1.3,0.3,2.6,0.3,4,0c0.2,0,0.3,0,0.3,0.2C41,44.7,41,45.1,41,45.5
	C41,45.5,41,45.5,41,45.5z"/>
<path fill="#B8DFE1" d="M36,55.5c-1.7-1.3-3.2-2.7-4-4.6c-0.3-0.7-0.4-1.4-0.2-2.1c0.3-1.2,1.2-1.8,2.3-2.1c0.2-0.1,0.4-0.1,0.7-0.1
	c0.1,0,0.3-0.1,0.3,0.1c0.1,0.1,0,0.3-0.1,0.4c-0.1,0.1-0.3,0.2-0.4,0.2c-1.2,0.2-1.8,1.4-1.2,2.5c0.4,0.8,1.1,1.3,1.8,1.9
	c0.6,0.5,1.3,1,2,1.4c0.2,0.1,0.2,0.2,0.1,0.4C36.7,54.1,36.4,54.7,36,55.5z"/>
<path fill="#B8DFE1" d="M41.4,55.5c-0.4-0.8-0.7-1.5-1.3-2.1c-0.2-0.2,0-0.3,0.1-0.3c0.9-0.6,1.7-1.1,2.5-1.8
	c0.5-0.5,1.1-0.9,1.4-1.6c0.5-0.9,0.2-1.8-0.7-2.3c-0.1-0.1-0.3-0.2-0.5-0.1c-0.2,0-0.3-0.1-0.4-0.2c-0.1-0.1-0.2-0.3-0.2-0.4
	c0.1-0.2,0.3-0.1,0.4-0.1c1.6,0.1,2.7,1,3,2.2c0.2,1.1-0.1,2-0.7,2.9c-0.8,1.3-1.9,2.4-3,3.4C41.8,55.2,41.6,55.3,41.4,55.5z"/>
<path fill="#B8DFE1" d="M36.5,16.2c0.3,0.3,0.6,0.3,1,0.2c2.1-0.7,4.2,0.6,4.7,2.7c0,0.1,0,0.2,0,0.3c-0.6-0.1-1.2-0.3-1.8-0.4
	c-1.7-0.3-3.4-0.3-5.1,0.2c-0.3,0.1-0.4,0-0.3-0.3c0.1-0.2,0.1-0.5,0.3-0.7c0.2-0.4,0.2-0.7-0.2-1C35.6,16.9,36,16.4,36.5,16.2z"/>
<path fill="#B8DFE1" d="M48.5,33.8c0-0.6,0-1.2,0-1.7c0-0.2,0.1-0.3,0.3-0.2c0.9,0.1,1.6,0.9,1.6,1.9c0,0.9-0.6,1.8-1.5,2
	c-0.3,0.1-0.4,0-0.4-0.3C48.5,34.8,48.5,34.3,48.5,33.8C48.5,33.8,48.5,33.8,48.5,33.8z"/>
<path fill="#B8DFE1" d="M28.9,33.7c0,0.5,0,1.1,0.1,1.6c0,0.2,0,0.3-0.3,0.3c-0.9-0.1-1.7-0.9-1.7-1.9c0-0.9,0.7-1.8,1.6-1.9
	c0.2,0,0.3,0,0.3,0.3C28.9,32.6,28.9,33.2,28.9,33.7C28.9,33.7,28.9,33.7,28.9,33.7z"/>
<path fill="#B8DFE1" d="M46,44.7c-0.3,0-0.6-0.2-0.6-0.6c0-0.3,0.3-0.6,0.6-0.6c0.3,0,0.6,0.3,0.6,0.6C46.6,44.4,46.4,44.7,46,44.7z
	"/>
<path fill="#F0F0F0" d="M45.1,45.9c-0.1,0-0.1,0-0.1-0.1C45,45.8,45.1,45.8,45.1,45.9C45.1,45.8,45.2,45.8,45.1,45.9L45.1,45.9z"/>
<path fill="#F0F0F0" d="M45.1,45.9c0.1-0.1,0.2,0,0.2,0c0,0,0,0.1-0.1,0.1C45.2,46,45.2,46,45.1,45.9C45.1,45.9,45.1,45.9,45.1,45.9
	z"/>
<path fill="#CC956B" d="M47.1,25.9C47.2,25.9,47.2,25.9,47.1,25.9c0.1,0.1,0,0.1,0,0.1C47.1,26,47.1,25.9,47.1,25.9
	C47.1,25.9,47.1,25.9,47.1,25.9z"/>
<path fill="#21294F" stroke="#21294F" stroke-width="0.3885" stroke-miterlimit="10" d="M51.3,60.4c-6.6,0-13.2,0-19.8,0
	c-0.3-0.2-0.4-0.4-0.4-0.7c0.1-0.5,0.4-0.6,0.9-0.6c6,0,12,0,17.9,0c0.4,0,0.4-0.1,0.4-0.4c0-1.5,0-2.9,0-4.4c0-1.9-0.9-3.4-2.4-4.6
	c-0.3-0.2-0.5-0.4-0.9-0.5c0,1.7-0.7,3-1.6,4.3c-1,1.4-2.3,2.5-3.7,3.5c-0.7,0.5-1.1,0.4-1.3-0.4c-0.3-0.8-0.6-1.5-1.1-2.1
	c-0.4-0.5-0.6-0.5-1,0c-0.5,0.7-0.9,1.4-1.2,2.3c-0.2,0.6-0.7,0.7-1.1,0.4c-1.2-0.9-2.3-1.8-3.3-2.9c-0.9-1-1.7-2.2-2-3.5
	c-0.1-0.5-0.1-0.9-0.2-1.5c-1.7,0.9-2.8,2.3-3.1,4.2c-0.3,1.8-0.1,3.7-0.1,5.5c0,0.2,0.1,0.2,0.3,0.2c0.4,0,0.7,0,1.1,0
	c0.5,0,0.8,0.2,0.9,0.6c0,0.3-0.2,0.6-0.5,0.7c-0.9,0-1.8,0-2.7,0c-0.3-0.2-0.5-0.5-0.5-0.9c0-0.5,0-1,0-1.5c0-1.1,0-2.1,0-3.2
	c0-1.4,0.3-2.8,1-4c0.6-1.1,1.5-1.9,2.5-2.6c0.2-0.1,0.3-0.2,0.5-0.2c0.7-0.2,1.2-0.7,1.6-1.2c0.8-1.1,2.1-1.4,3.4-1.6
	c0.3,0,0.4-0.1,0.4-0.4c0-1.2,0-1.2-1.1-1.6c-0.3-0.2-0.7-0.4-1-0.6c-1.2-0.9-2.2-2-3-3.4c-0.2-0.3-0.3-0.6-0.5-1
	c-0.1-0.3-0.2-0.6-0.3-0.9c-0.1-0.2-0.2-0.3-0.4-0.3c-1.2-0.1-2.2-0.6-2.8-1.6c-0.2-0.4-0.3-0.8-0.4-1.2c0-0.1,0-0.3,0-0.4
	c0-1.4,0.9-2.6,2.3-3.1c0.6-0.2,0.6-0.2,0.6-0.9c-0.2-2.1,0.2-4.1,1.2-6c1-1.6,2.2-2.8,3.8-3.7c0.1-0.1,0.2-0.1,0.2-0.3
	c0-0.8,0.2-1.6,0.6-2.3c0.1-0.1,0.1-0.1,0.2-0.2c0.3-0.1,0.5-0.1,0.8,0c0.3,0.3,0.4,0.6,0.2,1c-0.1,0.2-0.2,0.5-0.3,0.7
	c-0.1,0.3,0,0.4,0.3,0.3c1.7-0.5,3.4-0.6,5.1-0.2c0.6,0.1,1.2,0.3,1.8,0.4c0-0.1,0-0.2,0-0.3c-0.5-2.2-2.6-3.4-4.7-2.7
	c-0.4,0.1-0.7,0.1-1-0.2c-0.1-0.4-0.1-0.7,0.3-1c0.4-0.1,0.8-0.2,1.2-0.4c0.5,0,0.9,0,1.4,0c0,0,0,0.1,0,0.1
	c1.4,0.2,2.4,0.9,3.3,1.9c0.2,0.4,0.5,0.8,0.7,1.2c0.1,0.5,0.3,1,0.3,1.6c0,0.1,0.1,0.3,0.2,0.3c0.8,0.5,1.5,1,2.2,1.6
	c0.3,0.3,0.6,0.7,0.9,1c0.9,1.3,1.5,2.7,1.8,4.2c0.1,0.5,0.1,1.1,0.2,1.6c0,0.6,0,1.3-0.1,1.9c0,0.2,0,0.2,0.2,0.2
	c1.1,0.2,1.9,0.8,2.4,1.8c0.1,0.4,0.2,0.8,0.3,1.2c0,1.2-0.4,2.2-1.4,2.9C50.1,36.5,50,36.7,50,37c0,2.2-0.7,4.2-2.1,5.9
	c-0.2,0.3-0.2,0.4-0.1,0.7c0.3,1.7-1.2,2.8-2.5,2.3c-0.1,0-0.1-0.1-0.2,0c0-0.1,0-0.1-0.1-0.1c0,0-0.1,0-0.1,0
	c0,0.1,0.1,0.1,0.1,0.1c0,0.1,0.1,0.1,0.1,0.1c0.4,0.3,0.8,0.7,1.1,1.1c0.1,0.2,0.1,0.4,0.4,0.5c1.2,0.4,2.2,1.1,3.1,2
	c0.3,0.4,0.5,0.7,0.8,1.1c0.4,0.8,0.8,1.7,0.9,2.6c0.1,0.8,0,1.7,0.1,2.5c0,0.6,0,1.2,0,1.8c0,0.6,0,1.2,0,1.8
	C51.7,59.7,51.6,60.1,51.3,60.4z M47.1,25.9c0,0,0,0.1,0,0.1C47.1,26,47.2,26,47.1,25.9C47.2,25.9,47.2,25.9,47.1,25.9
	c0-0.2-0.1-0.3-0.1-0.5c-0.6-1.6-1.6-2.8-3-3.7c-1.2-0.7-2.4-1.2-3.8-1.4c-3.2-0.5-6,0.3-8.3,2.6c-0.8,0.8-1.3,1.8-1.6,2.9
	c0.4-0.4,0.8-0.8,1.2-1.2c1.9-1.6,4.1-2.4,6.5-2.6c1.5-0.1,3,0.1,4.5,0.6c0.4,0.2,0.7,0.5,0.5,0.9C42.9,24,42.5,24.1,42,24
	c-0.8-0.2-1.5-0.4-2.3-0.5c-2.8-0.2-5.3,0.4-7.4,2.3c-1,0.9-1.7,2-2,3.3c-0.1,0.3,0,0.5,0.4,0.5c0.4,0,0.8,0,1.2,0
	c0.3,0,0.8,0.2,1-0.1c0.2-0.2,0-0.6,0.1-0.9c0-0.5,0.3-0.7,0.6-0.7c0.4,0,0.6,0.3,0.7,0.7c0,0.3-0.2,0.8,0.1,1c0.3,0.2,0.7,0,1,0
	c0,0,0.1,0,0.1,0c0.3,0,0.4-0.1,0.4-0.4c0-0.9,0-1.7,0-2.6c0-0.2,0-0.4,0.2-0.6c0.2-0.2,0.4-0.2,0.7-0.1c0.3,0.1,0.4,0.4,0.4,0.7
	c0,0.9,0,1.7,0,2.6c0,0.3,0.1,0.4,0.4,0.4c3,0,6,0,8.9,0c0.4,0,0.4-0.1,0.4-0.4c-0.2-0.8-0.5-1.6-1-2.3c-0.5-0.6-1-1.2-1.7-1.7
	c-0.4-0.3-0.5-0.7-0.2-1c0.2-0.3,0.6-0.3,1,0c0.1,0.1,0.2,0.2,0.3,0.2C46.2,24.8,46.6,25.4,47.1,25.9z M38.7,30.9
	C38.7,30.9,38.7,30.9,38.7,30.9c-2.2,0-4.4,0-6.6,0c-0.5,0-0.9,0-1.4,0c-0.3,0-0.5,0-0.4,0.4c0.1,0.7,0,1.4,0,2.1
	c0,0.9,0,1.9,0.2,2.8c1.1,5,6.1,7.8,10.8,6.3c3.2-1,5.7-4,5.9-7.3c0.1-1.3,0-2.6,0.1-4c0-0.4-0.1-0.4-0.4-0.4
	C44.1,30.9,41.4,30.9,38.7,30.9z M41,45.5C41,45.5,41,45.5,41,45.5c0-0.4,0-0.8,0-1.2c0-0.2-0.1-0.3-0.3-0.2c-1.3,0.3-2.6,0.3-4,0
	c-0.2-0.1-0.3,0-0.3,0.3c0,0.7,0,1.3,0,2c0,1.3-0.4,1.9-1.7,2.2c-0.3,0.1-0.4,0.3-0.3,0.5c0.1,0.3,0.4,0.5,0.6,0.8
	c1,1,2.2,1.7,3.4,2.5c0.2,0.1,0.3,0.1,0.4,0c0.8-0.5,1.5-1,2.2-1.5c0.6-0.4,1.1-0.9,1.6-1.5c0.4-0.5,0.3-0.7-0.3-0.8
	c-0.9-0.2-1.5-0.9-1.5-1.9C41,46.3,41,45.9,41,45.5z M36,55.5c0.3-0.8,0.7-1.5,1.2-2c0.2-0.2,0.2-0.3-0.1-0.4
	c-0.7-0.4-1.4-0.9-2-1.4c-0.7-0.5-1.4-1.1-1.8-1.9c-0.6-1.1-0.1-2.3,1.2-2.5c0.2,0,0.3-0.1,0.4-0.2c0.1-0.1,0.2-0.3,0.1-0.4
	c-0.1-0.2-0.2-0.1-0.3-0.1c-0.2,0-0.4,0-0.7,0.1c-1.2,0.3-2,0.9-2.3,2.1c-0.2,0.7,0,1.4,0.2,2.1C32.9,52.8,34.4,54.2,36,55.5z
	 M41.4,55.5c0.2-0.2,0.4-0.3,0.6-0.5c1.2-1,2.3-2,3-3.4c0.5-0.9,0.8-1.9,0.7-2.9c-0.2-1.2-1.4-2.1-3-2.2c-0.1,0-0.3-0.1-0.4,0.1
	c-0.1,0.2,0,0.3,0.2,0.4c0.1,0.1,0.3,0.2,0.4,0.2c0.2,0,0.3,0.1,0.5,0.1c0.9,0.5,1.2,1.4,0.7,2.3c-0.3,0.7-0.9,1.1-1.4,1.6
	c-0.8,0.7-1.6,1.2-2.5,1.8c-0.1,0.1-0.3,0.1-0.1,0.3C40.7,54,41,54.7,41.4,55.5z M44.8,45.7c0,0-0.1-0.1-0.1-0.1
	c-0.7-0.7-0.8-1.6-0.4-2.4c0.5-0.8,1.3-1.1,2.2-0.9c0.2,0,0.3,0,0.4-0.1c1.1-1.4,1.7-3,1.8-4.7c0-0.1,0.1-0.3-0.1-0.3
	c-0.2,0-0.4,0-0.5,0.3c-0.9,2.9-2.8,5-5.5,6.2c-0.1,0.1-0.3,0.1-0.2,0.3c0,0.4,0,0.8,0,1.2c0,0.2,0.1,0.2,0.2,0.2
	C43.3,45.2,44,45.4,44.8,45.7z M48.5,33.8C48.5,33.8,48.5,33.8,48.5,33.8c0,0.5,0,1-0.1,1.5c0,0.4,0.1,0.4,0.4,0.3
	c0.9-0.2,1.6-1,1.5-2c0-0.9-0.7-1.7-1.6-1.9c-0.2,0-0.3,0-0.3,0.2C48.5,32.6,48.5,33.2,48.5,33.8z M28.9,33.7
	C28.9,33.7,28.9,33.7,28.9,33.7c0-0.6,0-1.1,0-1.7c0-0.2-0.1-0.3-0.3-0.3c-0.9,0.1-1.6,1-1.6,1.9c0,1,0.7,1.8,1.7,1.9
	c0.2,0,0.3,0,0.3-0.3C28.9,34.8,28.9,34.3,28.9,33.7z M46,44.7c0.3,0,0.6-0.3,0.6-0.6c0-0.3-0.3-0.6-0.6-0.6c-0.3,0-0.6,0.3-0.6,0.6
	C45.4,44.4,45.7,44.7,46,44.7z"/>
<path fill="#21294F" stroke="#21294F" stroke-width="0.3885" stroke-miterlimit="10" d="M46.3,56.6c0.5,0,1.1,0,1.6,0
	c0.5,0,0.7,0.2,0.7,0.6c0,0.4-0.2,0.7-0.6,0.7c-1.1,0-2.2,0-3.3,0c-0.4,0-0.6-0.3-0.6-0.7c0-0.4,0.2-0.6,0.7-0.6
	C45.2,56.6,45.7,56.6,46.3,56.6C46.3,56.6,46.3,56.6,46.3,56.6z"/>
</svg>
