<svg xmlns="http://www.w3.org/2000/svg" viewBox="0 0 77.63 77.63"><defs><style>.cls-1{fill:#fdfefe;opacity:0.1;}.cls-2{fill:#081e57;}</style></defs><g id="Layer_2" data-name="Layer 2"><g id="Layer_1-2" data-name="Layer 1"><circle class="cls-1" cx="38.82" cy="38.82" r="38.82"/><path class="cls-2" d="M56.66,56.05a23.43,23.43,0,0,0,0-34.36,1.35,1.35,0,0,0-1.93.07,1.37,1.37,0,0,0,.06,1.94,20.67,20.67,0,0,1,0,30.34,1.37,1.37,0,0,0,1.87,2Z"/><path class="cls-2" d="M51,51a16.76,16.76,0,0,0,0-24.29,1.37,1.37,0,0,0-1.93,2,14,14,0,0,1,0,20.4,1.35,1.35,0,0,0-.4,1,1.39,1.39,0,0,0,.39,1A1.37,1.37,0,0,0,51,51Z"/><path class="cls-2" d="M45.32,45.53a9.9,9.9,0,0,0,2.87-6.68h0v-.09h0a9.9,9.9,0,0,0-2.87-6.67,1.36,1.36,0,0,0-1.93,0,1.38,1.38,0,0,0-.41,1,1.34,1.34,0,0,0,.4,1,7.19,7.19,0,0,1,2.07,4.74h0v.1h0a7.2,7.2,0,0,1-2.07,4.75,1.37,1.37,0,1,0,1.94,1.93Z"/><path class="cls-2" d="M21,21.59a23.42,23.42,0,0,0,0,34.35,1.37,1.37,0,1,0,1.87-2,20.7,20.7,0,0,1,0-30.35,1.35,1.35,0,0,0,.43-1,1.4,1.4,0,0,0-.36-.94A1.37,1.37,0,0,0,21,21.59Z"/><path class="cls-2" d="M26.63,26.62a16.78,16.78,0,0,0,0,24.29A1.37,1.37,0,0,0,28.56,49a14,14,0,0,1,0-20.39,1.38,1.38,0,0,0,.41-1,1.38,1.38,0,0,0-2.34-1Z"/><path class="cls-2" d="M32.31,32.11a9.88,9.88,0,0,0-2.87,6.67h0v.1h0a9.88,9.88,0,0,0,2.87,6.67,1.37,1.37,0,0,0,2.34-1,1.39,1.39,0,0,0-.39-1,7.15,7.15,0,0,1-2.07-4.74h0v-.1h0A7.15,7.15,0,0,1,34.26,34a1.38,1.38,0,0,0,0-1.94A1.36,1.36,0,0,0,32.31,32.11Z"/></g></g></svg>