<svg xmlns="http://www.w3.org/2000/svg" viewBox="0 0 49.73 49.73"><defs><style>.cls-1{fill:#feffff;opacity:0.26;}.cls-2{fill:#00d4e5;}.cls-3{fill:#fff;}.cls-4{fill:#b9e0e2;}</style></defs><g id="Layer_2" data-name="Layer 2"><g id="Layer_1-2" data-name="Layer 1"><circle class="cls-1" cx="24.87" cy="24.87" r="24.87"/><path class="cls-2" d="M21.22,39A4.75,4.75,0,0,1,20,35.69q0-10.38,0-20.77c0-.17,0-.31-.22-.37a.71.71,0,0,1-.52-.79.77.77,0,0,1,.68-.69h9.66a.78.78,0,0,1,.79,1.16.58.58,0,0,1-.44.35c-.22,0-.25.13-.24.32.08,2.09,0,4.18,0,6.27,0,4.72,0,9.44,0,14.16a5.57,5.57,0,0,1-.62,2.77A4.91,4.91,0,0,1,21.22,39Zm7-9a.88.88,0,0,1-.08-.27q0-7.41,0-14.82c0-.21-.05-.27-.27-.27H21.53a.86.86,0,0,1,0,.35c0,2.72,0,5.43,0,8.15a.62.62,0,0,0,.19.46l6.2,6.19A.49.49,0,0,0,28.24,30Zm-6.7-4.39v3.56c0,2.19,0,4.37,0,6.56a3.18,3.18,0,0,0,1.58,2.88,3.31,3.31,0,0,0,5-2.76c0-1.13,0-2.27,0-3.4A.52.52,0,0,0,28,32l-6.24-6.23Z"/><path class="cls-3" d="M28.24,30a.49.49,0,0,1-.31-.19l-6.2-6.19a.62.62,0,0,1-.19-.46c0-2.72,0-5.43,0-8.15a.86.86,0,0,0,0-.35H27.9c.22,0,.27.06.27.27q0,7.41,0,14.82A.88.88,0,0,0,28.24,30Z"/><path class="cls-4" d="M21.54,25.56l.2.2L28,32a.52.52,0,0,1,.18.41c0,1.13,0,2.27,0,3.4a3.31,3.31,0,0,1-5,2.76,3.18,3.18,0,0,1-1.58-2.88c0-2.19,0-4.37,0-6.56Z"/><rect class="cls-2" x="20.98" y="9.16" width="8.01" height="4.33"/></g></g></svg>