<svg xmlns="http://www.w3.org/2000/svg" viewBox="0 0 77.63 77.63"><defs><style>.cls-1{fill:#fdfefe;opacity:0.1;}.cls-2{fill:#b2f8f0;}.cls-3{fill:#081e57;}.cls-4{fill:#fdfdfe;}</style></defs><g id="Layer_2" data-name="Layer 2"><g id="Layer_1-2" data-name="Layer 1"><circle class="cls-1" cx="38.82" cy="38.82" r="38.82"/><rect class="cls-2" x="22.5" y="22.26" width="33.69" height="31.26" rx="3.71"/><path class="cls-3" d="M53.21,54.43H50.53a1.12,1.12,0,1,1,0-2.23h2.68a1.86,1.86,0,0,0,1.86-1.86V25.83A1.86,1.86,0,0,0,53.21,24H25.73a1.86,1.86,0,0,0-1.86,1.86V50.34a1.87,1.87,0,0,0,1.86,1.86h2.69a1.12,1.12,0,0,1,0,2.23H25.73a4.1,4.1,0,0,1-4.09-4.09V25.83a4.09,4.09,0,0,1,4.09-4.09H53.21a4.09,4.09,0,0,1,4.09,4.09V50.34A4.09,4.09,0,0,1,53.21,54.43Z"/><path class="cls-3" d="M56.19,29.17H22.76a1.12,1.12,0,1,1,0-2.23H56.19a1.12,1.12,0,0,1,0,2.23Z"/><path class="cls-4" d="M31.78,40.13c.32,0,7.75-2.24,7.75-2.24l8.22,3-1.3,9.4-2.92,3.65-3.16,2-3.16-1L35,52.69l-2.84-3.32s-.48-3.16-.48-3.4S31.78,40.13,31.78,40.13Z"/><path class="cls-3" d="M39.47,57.4a1.07,1.07,0,0,1-.43-.09c-.35-.15-8.48-3.69-8.48-11v-6a1.12,1.12,0,0,1,.75-1.06l7.8-2.65a1.11,1.11,0,0,1,.72,0l7.8,2.65a1.12,1.12,0,0,1,.76,1.06v6c0,7.29-8.14,10.83-8.48,11a1.12,1.12,0,0,1-.44.09ZM32.79,41.16v5.17c0,5,5.13,7.94,6.68,8.72,1.55-.78,6.69-3.76,6.69-8.72V41.16l-6.69-2.27Z"/><path class="cls-3" d="M39.1,50.71a1.13,1.13,0,0,1-.79-.33l-3-3a1.11,1.11,0,0,1,1.58-1.57L39,47.9,42.67,43a1.11,1.11,0,1,1,1.78,1.33l-4.46,6a1.12,1.12,0,0,1-.81.44Z"/></g></g></svg>