<svg xmlns="http://www.w3.org/2000/svg" viewBox="0 0 49.73 49.73"><defs><style>.cls-1{fill:#feffff;opacity:0.26;}.cls-2{fill:#00d4e5;}.cls-3{fill:#b9e0e2;}.cls-4{fill:#fefeff;}</style></defs><g id="Layer_2" data-name="Layer 2"><g id="Layer_1-2" data-name="Layer 1"><circle class="cls-1" cx="24.87" cy="24.87" r="24.87"/><path class="cls-2" d="M32.13,32c-.12-.12-.18-.08-.27,0l-1.81,1.81a2.67,2.67,0,0,1-3.92,0c-.77-.76-1.54-1.53-2.3-2.3-1.53-1.53-3.11-3-4.58-4.62a5.61,5.61,0,0,1-1.42-5.29.77.77,0,0,0-.26-.9,10.68,10.68,0,0,1-.89-.89,2.31,2.31,0,0,1-.13-3.13c.12-.15.08-.21,0-.32l-3.84-3.83a1.43,1.43,0,0,1-.23-.26.71.71,0,0,1,0-.81.73.73,0,0,1,.72-.37.94.94,0,0,1,.59.34l3.86,3.86c.08.08.13.18.29.05a2.33,2.33,0,0,1,3.23.18c.35.33.7.67,1,1a.36.36,0,0,0,.43.11,3.09,3.09,0,0,1,1-.18,6,6,0,0,1,4.89,1.83L35,24.88a2.64,2.64,0,0,1,0,3.92l-1.8,1.8c-.12.11-.14.17,0,.3.83.81,1.66,1.64,2.48,2.47.12.12.17.11.29,0l1.46-1.46c.3-.31.6-.62.92-.91a.75.75,0,0,1,1.25.41.84.84,0,0,1-.31.79q-2.47,2.46-4.94,4.94c-.34.34-.68.69-1,1a.75.75,0,0,1-1.28-.65.92.92,0,0,1,.3-.52c.81-.8,1.65-1.57,2.38-2.34C33.86,33.75,33,32.85,32.13,32ZM19.79,24.52c-.29,0-.29,0-.17.26a4.52,4.52,0,0,0,.93,1.31c.71.71,1.42,1.42,2.12,2.14.15.14.22.13.36,0,.56-.58,1.14-1.14,1.71-1.71a.78.78,0,0,1,1.14-.07.8.8,0,0,1-.07,1.15c-.58.58-1.15,1.16-1.74,1.73-.13.13-.12.2,0,.31l.74.74c.13.15.21.17.36,0s.58-.6.89-.9a.8.8,0,0,1,1.13-.05.77.77,0,0,1-.06,1.13q-.45.47-.93.93c-.11.1-.12.16,0,.27.35.34.68.69,1,1a1.15,1.15,0,0,0,1.7,0c1.7-1.7,3.4-3.39,5.09-5.1A1.11,1.11,0,0,0,34,26c-.45-.45-.9-.88-1.33-1.34a.51.51,0,0,0-.4-.16H19.79Zm7.44-5.3a4.5,4.5,0,0,0-6.17-.15,4.9,4.9,0,0,0-1.78,2.82,5.75,5.75,0,0,0-.09.93c0,.16.06.18.2.18H31C29.72,21.72,28.49,20.45,27.23,19.22Zm-7-1.34c.15-.14.31-.27.47-.4s.13-.14,0-.24-.47-.47-.71-.7a.8.8,0,0,0-1.19,0c-.35.34-.7.69-1,1a.82.82,0,0,0,0,1.16c.25.27.52.53.8.82A8.15,8.15,0,0,1,20.21,17.88Z"/><path class="cls-3" d="M26,24.52H19.79c-.29,0-.29,0-.17.26a4.52,4.52,0,0,0,.93,1.31c.71.71,1.42,1.42,2.12,2.14.15.14.22.13.36,0,.56-.58,1.14-1.14,1.71-1.71a.78.78,0,0,1,1.14-.07.8.8,0,0,1-.07,1.15c-.58.58-1.15,1.16-1.74,1.73-.13.13-.12.2,0,.31l.74.74c.13.15.21.17.36,0s.58-.6.89-.9a.8.8,0,0,1,1.13-.05.77.77,0,0,1-.06,1.13q-.45.47-.93.93c-.11.1-.12.16,0,.27.35.34.68.69,1,1a1.15,1.15,0,0,0,1.7,0c1.7-1.7,3.4-3.39,5.09-5.1A1.11,1.11,0,0,0,34,26c-.45-.45-.9-.88-1.33-1.34a.51.51,0,0,0-.4-.16Z"/><path class="cls-4" d="M31,23c-1.27-1.28-2.5-2.55-3.76-3.78a4.5,4.5,0,0,0-6.17-.15,4.9,4.9,0,0,0-1.78,2.82,5.75,5.75,0,0,0-.09.93c0,.16.06.18.2.18H31Z"/><path class="cls-4" d="M18.59,19.57a8.15,8.15,0,0,1,1.62-1.69c.15-.14.31-.27.47-.4s.13-.14,0-.24-.47-.47-.71-.7a.8.8,0,0,0-1.19,0c-.35.34-.7.69-1,1a.82.82,0,0,0,0,1.16C18,19,18.31,19.28,18.59,19.57Z"/><path class="cls-2" d="M18.61,28.75a22.86,22.86,0,0,0-2.32-4,.73.73,0,0,0-1.23,0,20.48,20.48,0,0,0-2.49,4.42,3.28,3.28,0,0,0-.26,1.12,3.35,3.35,0,0,0,6.7.12A3.83,3.83,0,0,0,18.61,28.75Zm-3,3.36h0Zm.63-.1a1.76,1.76,0,0,0,1.24-1.68,1.6,1.6,0,0,0-.14-.72,1.6,1.6,0,0,1,.14.72A1.76,1.76,0,0,1,16.22,32Zm-.34.08h0Zm.18,0,.07,0Z"/></g></g></svg>