<svg xmlns="http://www.w3.org/2000/svg" viewBox="0 0 49.73 49.73"><defs><style>.cls-1{fill:#feffff;opacity:0.26;}.cls-2{fill:#00d4e5;}.cls-3{fill:#fff;}.cls-4{fill:#b9e0e2;}</style></defs><g id="Layer_2" data-name="Layer 2"><g id="Layer_1-2" data-name="Layer 1"><circle class="cls-1" cx="24.87" cy="24.87" r="24.87"/><path class="cls-2" d="M28.71,29.92a14.85,14.85,0,0,1-1.49-.54,5,5,0,0,1-2.86-3.93.79.79,0,0,0-.31-.54A8.49,8.49,0,0,1,20.78,19a7.31,7.31,0,0,1,.66-4.34A6.64,6.64,0,0,1,25,11.46c.18-.07.28-.14.29-.37a.73.73,0,0,1,.67-.7.75.75,0,0,1,.78.49q.25.67.48,1.35a.76.76,0,0,1-.4,1,.73.73,0,0,1-1-.32l-.05-.06a5,5,0,0,0-3.39,3.75h2.53a.76.76,0,0,1,.85.7.73.73,0,0,1-.74.81c-.81,0-1.62,0-2.42,0-.4,0-.41,0-.38.38s.09.66.12,1,.09.26.28.25h1.05a.72.72,0,0,1,.77.69.74.74,0,0,1-.69.81c-.25,0-.51,0-.83,0a2.66,2.66,0,0,0,.17.34,7.24,7.24,0,0,0,5.14,3.57A7.17,7.17,0,0,0,36.59,19a5.54,5.54,0,0,0-1.33-4.82,5,5,0,0,0-2-1.34c-.14-.05-.21-.05-.31.08a.73.73,0,0,1-1,.26.75.75,0,0,1-.36-1c.15-.44.3-.87.46-1.3a.78.78,0,0,1,.81-.53.73.73,0,0,1,.65.77c0,.22.15.22.28.27A6.38,6.38,0,0,1,37.93,16,8.45,8.45,0,0,1,35.85,24c-.33.38-.75.67-1.12,1a.65.65,0,0,0-.18.31,5.15,5.15,0,0,1-4.06,4.49l-.27.08c0,.37,0,.75-.07,1.12a8.22,8.22,0,0,1-16.23.79,18.69,18.69,0,0,1-.18-2.71,11.81,11.81,0,0,1,0-1.19.26.26,0,0,0-.23-.3,4.18,4.18,0,0,1-3.24-3.47,4.28,4.28,0,1,1,5.28,3.46c-.24.06-.31.15-.3.39,0,.94,0,1.9.06,2.83a6.42,6.42,0,0,0,4.17,5.57,6.67,6.67,0,0,0,9.05-4.82A13.44,13.44,0,0,0,28.71,29.92ZM14.5,20.68a2.75,2.75,0,1,0,2.75,2.56A2.75,2.75,0,0,0,14.5,20.68Zm11.62,5.45a3.59,3.59,0,0,0,4.14,2.16c1.13-.26,2.52-1.49,2.43-2.19A8.83,8.83,0,0,1,26.12,26.13Z"/><path class="cls-3" d="M14.5,20.68a2.75,2.75,0,1,1-2.76,2.73A2.74,2.74,0,0,1,14.5,20.68Zm0,3.54a.83.83,0,0,0,.93-.79.81.81,0,0,0-.9-.8.8.8,0,0,0-.9.79A.82.82,0,0,0,14.47,24.22Z"/><path class="cls-4" d="M26.12,26.13a8.83,8.83,0,0,0,6.57,0c.09.7-1.3,1.93-2.43,2.19A3.59,3.59,0,0,1,26.12,26.13Z"/><path class="cls-4" d="M14.47,24.22a.82.82,0,0,1-.87-.8.8.8,0,0,1,.9-.79.81.81,0,0,1,.9.8A.83.83,0,0,1,14.47,24.22Z"/></g></g></svg>